<?xml version="1.0" ?><svg viewBox="0 0 64 64" xmlns="http://www.w3.org/2000/svg"><g id="a"/><g id="b"/><g id="c" /><g id="d"/><g id="e"/><g id="f"/><g id="g"/><g id="h"/><g id="i"/><g id="j"/><g id="k"/><g id="l"/><g id="m"/><g id="n"/><g id="o"/><g id="p"/><g id="q"/><g id="r"/><g id="s"/><g id="t"/><g id="u"/><g id="v"/><g id="w"/><g id="x"/><g id="y"/><g id="a`"/><g id="aa"/><g id="ab"/><g id="ac"/><g id="ad"/><g id="ae"/><g id="af"/><g id="ag"/><g id="ah"/><g id="ai"/><g id="aj"/><g id="ak"/><g id="al"/><g id="am"/><g id="an"/><g id="ao"/><g id="ap"><path d="M44.31,18.67H12.28c-.55,0-1,.45-1,1v19.65c0,.55,.45,1,1,1H44.31c.55,0,1-.45,1-1V19.67c0-.55-.45-1-1-1Zm-31.04,2h8.68v17.65H13.28V20.67Zm10.68,17.65V20.67h8.68v17.65h-8.68Zm19.36,0h-8.68V20.67h8.68v17.65Z" fill="#52200B"/><path d="M20.19,26.29c-.15-.38-.52-.62-.93-.62h-3.98c-.55,0-1,.45-1,1s.45,1,1,1h1.91c-.75,1.15-1.54,2.79-1.54,4.64,0,.55,.45,1,1,1s1-.45,1-1c0-2.63,2.28-4.9,2.3-4.92,.29-.28,.38-.72,.23-1.09Z" fill="#52200B"/><path d="M30.29,25.67h-3.98c-.55,0-1,.45-1,1s.45,1,1,1h1.91c-.75,1.15-1.54,2.79-1.54,4.64,0,.55,.45,1,1,1s1-.45,1-1c0-2.63,2.28-4.9,2.3-4.92,.29-.28,.38-.72,.23-1.09-.15-.38-.52-.62-.93-.62Z" fill="#52200B"/><path d="M37.33,27.67h1.91c-.75,1.15-1.54,2.79-1.54,4.64,0,.55,.45,1,1,1s1-.45,1-1c0-2.63,2.28-4.9,2.3-4.92,.29-.28,.38-.72,.23-1.09-.15-.38-.52-.62-.93-.62h-3.98c-.55,0-1,.45-1,1s.45,1,1,1Z" fill="#52200B"/><path d="M60,11.33c0-2.59-2.11-4.7-4.7-4.7s-4.7,2.11-4.7,4.7c0,2.24,1.61,4.03,3.7,4.51v9.14h-1.7v-3.21c0-1.9-1.55-3.45-3.45-3.45h-.64c-.1-1.81-1.57-3.27-3.41-3.27H11.5c-1.84,0-3.31,1.46-3.41,3.27h-.64c-1.9,0-3.45,1.55-3.45,3.45v15.44c0,1.9,1.55,3.45,3.45,3.45h.64c.09,1.71,1.42,3.05,3.11,3.21v9.66c0,2.12,1.72,3.84,3.84,3.84h26.52c2.12,0,3.84-1.72,3.84-3.84v-9.66c1.69-.16,3.02-1.5,3.11-3.21h.64c1.9,0,3.45-1.55,3.45-3.45v-3.21h4.44c1.63,0,2.96-1.33,2.96-2.97v-3.08c0-1.64-1.33-2.97-2.96-2.97h-.74V15.84c2.1-.47,3.7-2.27,3.7-4.51ZM6,37.21v-15.44c0-.81,.64-1.45,1.45-1.45h.6v18.34h-.6c-.81,0-1.45-.64-1.45-1.45Zm35.55,18.16H15.04c-1.01,0-1.84-.83-1.84-1.84v-9.6h1.29v7.13c0,1.38,1.12,2.51,2.51,2.51h11.13c1.38,0,2.51-1.13,2.51-2.51v-7.13h12.76v9.6c0,1.01-.83,1.84-1.84,1.84Zm-12.92-11.44v7.13c0,.29-.22,.51-.51,.51h-11.13c-.29,0-.51-.22-.51-.51v-7.13h12.15Zm17.91-3.45c0,.8-.65,1.45-1.45,1.45H11.5c-.8,0-1.45-.65-1.45-1.45V18.5c0-.8,.65-1.45,1.45-1.45H45.09c.8,0,1.45,.65,1.45,1.45v21.98Zm4.05-3.27c0,.81-.64,1.45-1.45,1.45h-.6V20.32h.6c.81,0,1.45,.64,1.45,1.45v15.44Zm7.41-9.26v3.08c0,.53-.43,.97-.96,.97h-4.44v-5.02h4.44c.53,0,.96,.44,.96,.97Zm-5.41-16.62c0-1.49,1.21-2.7,2.7-2.7s2.7,1.21,2.7,2.7-1.21,2.71-2.7,2.71-2.7-1.22-2.7-2.71Z" fill="#52200B"/><path d="M39.25,47.61h-4.49c-1.64,0-2.98,1.34-2.98,2.98s1.33,2.98,2.98,2.98h4.49c1.64,0,2.98-1.34,2.98-2.98s-1.33-2.98-2.98-2.98Zm0,3.96h-4.49c-.55,0-.98-.43-.98-.98s.44-.98,.98-.98h4.49c.54,0,.98,.44,.98,.98s-.43,.98-.98,.98Z" fill="#52200B"/><path d="M26.21,50.34c.55,0,1-.45,1-1v-2.62c0-.55-.45-1-1-1s-1,.45-1,1v2.62c0,.55,.45,1,1,1Z" fill="#52200B"/><path d="M33.74,46.6h6.54c.55,0,1-.45,1-1s-.45-1-1-1h-6.54c-.55,0-1,.45-1,1s.45,1,1,1Z" fill="#52200B"/></g><g id="aq"/><g id="ar"/><g id="as"/><g id="at"/><g id="au"/><g id="av"/><g id="aw"/><g id="ax"/></svg>