<?xml version="1.0" ?><!DOCTYPE svg  PUBLIC '-//W3C//DTD SVG 1.1//EN'  'http://www.w3.org/Graphics/SVG/1.1/DTD/svg11.dtd'><svg enable-background="new 0 0 64 64" version="1.1" viewBox="0 0 64 64" xml:space="preserve" xmlns="http://www.w3.org/2000/svg" xmlns:xlink="http://www.w3.org/1999/xlink"><g id="Layer_1"/><g id="Layer_3" fill="white"><g><path d="M29,33.4l-0.4,2.2c-0.1,0.4,0.1,0.8,0.4,1c0.3,0.2,0.7,0.3,1.1,0.1l2-1l2,1c0.1,0.1,0.3,0.1,0.5,0.1    c0.2,0,0.4-0.1,0.6-0.2c0.3-0.2,0.5-0.6,0.4-1L35,33.4l1.6-1.6c0.3-0.3,0.4-0.7,0.3-1c-0.1-0.4-0.4-0.6-0.8-0.7l-2.2-0.3l-1-2    c-0.3-0.7-1.5-0.7-1.8,0l-1,2l-2.2,0.3c-0.4,0.1-0.7,0.3-0.8,0.7c-0.1,0.4,0,0.8,0.3,1L29,33.4z M30.9,31.7c0.3,0,0.6-0.3,0.8-0.5    l0.3-0.7l0.3,0.7c0.1,0.3,0.4,0.5,0.8,0.5l0.7,0.1l-0.5,0.5c-0.2,0.2-0.3,0.6-0.3,0.9l0.1,0.7l-0.6-0.3c-0.1-0.1-0.3-0.1-0.5-0.1    s-0.3,0-0.5,0.1l-0.6,0.3l0.1-0.7c0.1-0.3-0.1-0.7-0.3-0.9l-0.5-0.5L30.9,31.7z"/><path d="M19,33h2.5c0.6,0,1-0.4,1-1s-0.4-1-1-1H19c-0.6,0-1,0.4-1,1S18.4,33,19,33z"/><path d="M42.6,33H45c0.6,0,1-0.4,1-1s-0.4-1-1-1h-2.5c-0.6,0-1,0.4-1,1S42,33,42.6,33z"/><path d="M14.3,38.1c0.2,0,0.3-0.1,0.4-0.1c0.9,0,1.7,0.8,1.7,1.7c0,0.1,0,0.2,0,0.3c-0.1,0.3,0,0.6,0.2,0.8s0.5,0.4,0.8,0.4h29.4    c0,0,0,0,0,0c0.6,0,1-0.4,1-1c0-0.1,0-0.2-0.1-0.4c0-0.1,0-0.1,0-0.2c0-0.9,0.8-1.7,1.7-1.7c0.1,0,0.2,0,0.4,0.1    c0.3,0.1,0.6,0,0.9-0.2c0.2-0.2,0.4-0.5,0.4-0.8V26.9c0-0.3-0.1-0.6-0.4-0.8c-0.2-0.2-0.6-0.3-0.9-0.2c-0.2,0-0.3,0.1-0.4,0.1    c-0.9,0-1.7-0.8-1.7-1.7c0-0.1,0-0.2,0-0.3c0.1-0.3,0-0.6-0.2-0.8s-0.5-0.4-0.8-0.4H17.3c-0.3,0-0.6,0.1-0.8,0.4s-0.3,0.5-0.2,0.8    c0,0.1,0,0.2,0,0.3c0,0.9-0.8,1.7-1.7,1.7c-0.1,0-0.3,0-0.4-0.1c-0.3-0.1-0.6,0-0.9,0.2S13,26.6,13,26.9v10.2    c0,0.3,0.1,0.6,0.4,0.8C13.7,38.1,14,38.1,14.3,38.1z M15,28c1.7-0.2,3.1-1.5,3.3-3.2h27.3c0.2,1.7,1.6,3,3.3,3.2v8    c-1.7,0.2-3.1,1.5-3.3,3.2H18.3c-0.2-1.7-1.6-3-3.3-3.2V28z"/><path d="M9.6,42.6c-0.4,0.2-0.7,0.7-0.6,1.1s0.5,0.8,1,0.8h13.3L27.8,57c0.1,0.4,0.5,0.7,0.9,0.7c0,0,0.1,0,0.1,0    c0.5-0.1,0.8-0.5,0.9-0.9c0-0.5,0.4-1,0.9-1.2c0.4-0.1,0.8-0.1,1.2,0.1c0.3,0.2,0.6,0.2,0.9,0.1c0.3-0.1,0.5-0.3,0.6-0.6    c0.1-0.4,0.4-0.7,0.8-0.9c0.4-0.1,0.8-0.1,1.2,0.1c0.3,0.2,0.6,0.2,0.9,0.1c0.3-0.1,0.5-0.3,0.6-0.6c0.1-0.4,0.4-0.7,0.8-0.9    c0.4-0.1,0.8-0.1,1.2,0.1c0.3,0.2,0.6,0.2,0.9,0.1c0.3-0.1,0.5-0.3,0.6-0.6c0.1-0.4,0.4-0.7,0.8-0.9c0.4-0.1,0.8-0.1,1.2,0.1    c0.3,0.2,0.6,0.2,0.9,0.1c0.3-0.1,0.5-0.3,0.6-0.6c0.1-0.4,0.4-0.7,0.8-0.9c0.4-0.1,0.8-0.1,1.2,0.1c0.3,0.2,0.6,0.2,0.9,0.1    c0.3-0.1,0.5-0.3,0.6-0.6c0.1-0.4,0.4-0.7,0.8-0.9c0.5-0.2,1.1-0.1,1.5,0.3c0.3,0.3,0.8,0.4,1.3,0.2c0.4-0.3,0.6-0.7,0.4-1.2    l-1.4-3.8H54c0.5,0,0.9-0.3,1-0.8s-0.1-0.9-0.6-1.1c-0.5-0.2-0.8-0.7-0.8-1.2c0-0.4,0.2-0.8,0.5-1.1c0.2-0.2,0.4-0.5,0.4-0.8    c0-0.3-0.1-0.6-0.4-0.8c-0.3-0.3-0.5-0.7-0.5-1.1s0.2-0.8,0.5-1.1c0.2-0.2,0.4-0.5,0.4-0.8s-0.1-0.6-0.4-0.8    c-0.3-0.3-0.5-0.7-0.5-1.1c0-0.4,0.2-0.8,0.5-1.1c0.2-0.2,0.4-0.5,0.4-0.8c0-0.3-0.1-0.6-0.4-0.8c-0.3-0.3-0.5-0.7-0.5-1.1    c0-0.4,0.2-0.8,0.5-1.1c0.2-0.2,0.4-0.5,0.4-0.8s-0.1-0.6-0.4-0.8c-0.3-0.3-0.5-0.7-0.5-1.1s0.2-0.8,0.5-1.1    c0.2-0.2,0.4-0.5,0.4-0.8c0-0.3-0.1-0.6-0.4-0.8c-0.3-0.3-0.5-0.7-0.5-1.1c0-0.5,0.3-1,0.8-1.2c0.4-0.2,0.7-0.7,0.6-1.1    s-0.5-0.8-1-0.8H40.8L36.2,7c-0.2-0.4-0.6-0.7-1.1-0.6c-0.5,0.1-0.8,0.5-0.9,0.9c0,0.5-0.4,1-0.9,1.2c-0.4,0.1-0.8,0.1-1.2-0.1    c-0.3-0.2-0.6-0.2-0.9-0.1c-0.3,0.1-0.5,0.3-0.6,0.6c-0.1,0.4-0.4,0.7-0.8,0.9c-0.4,0.1-0.8,0.1-1.2-0.1c-0.3-0.2-0.6-0.2-0.9-0.1    c-0.3,0.1-0.5,0.3-0.6,0.6c-0.1,0.4-0.4,0.7-0.8,0.9c-0.4,0.1-0.8,0.1-1.2-0.1c-0.3-0.2-0.6-0.2-0.9-0.1c-0.3,0.1-0.5,0.3-0.6,0.6    c-0.1,0.4-0.4,0.7-0.8,0.9c-0.4,0.1-0.8,0.1-1.2-0.1c-0.3-0.2-0.6-0.2-0.9-0.1c-0.3,0.1-0.5,0.3-0.6,0.6c-0.1,0.4-0.4,0.7-0.8,0.9    c-0.4,0.1-0.8,0.1-1.2-0.1c-0.3-0.2-0.6-0.2-0.9-0.1c-0.3,0.1-0.5,0.3-0.6,0.6c-0.1,0.4-0.4,0.7-0.8,0.9c-0.5,0.2-1.1,0.1-1.5-0.3    c-0.3-0.3-0.9-0.4-1.2-0.1c-0.4,0.3-0.6,0.7-0.4,1.2l1.4,3.8H10c-0.5,0-0.9,0.3-1,0.8s0.1,0.9,0.6,1.1c0.5,0.2,0.8,0.7,0.8,1.2    c0,0.4-0.2,0.8-0.5,1.1c-0.2,0.2-0.4,0.5-0.4,0.8c0,0.3,0.1,0.6,0.4,0.8c0.3,0.3,0.5,0.7,0.5,1.1s-0.2,0.8-0.5,1.1    c-0.2,0.2-0.4,0.5-0.4,0.8s0.1,0.6,0.4,0.8c0.3,0.3,0.5,0.7,0.5,1.1c0,0.4-0.2,0.8-0.5,1.1c-0.2,0.2-0.4,0.5-0.4,0.8    c0,0.3,0.1,0.6,0.4,0.8c0.3,0.3,0.5,0.7,0.5,1.1c0,0.4-0.2,0.8-0.5,1.1c-0.2,0.2-0.4,0.5-0.4,0.8s0.1,0.6,0.4,0.8    c0.3,0.3,0.5,0.7,0.5,1.1s-0.2,0.8-0.5,1.1c-0.2,0.2-0.4,0.5-0.4,0.8c0,0.3,0.1,0.6,0.4,0.8c0.3,0.3,0.5,0.7,0.5,1.1    C10.4,41.9,10.1,42.4,9.6,42.6z M48.7,47c-0.3,0-0.8,0.1-1.2,0.2c-0.6,0.2-1.2,0.7-1.6,1.2c-0.6-0.2-1.3-0.1-2,0.1    c-0.6,0.2-1.2,0.6-1.6,1.2c-0.6-0.2-1.3-0.1-2,0.1c-0.6,0.2-1.2,0.6-1.6,1.2c-0.6-0.2-1.3-0.1-2,0.1c-0.6,0.2-1.2,0.6-1.6,1.2    c-0.6-0.2-1.3-0.1-2,0.1c-0.6,0.2-1.2,0.7-1.6,1.2c-0.6-0.2-1.3-0.1-2,0.1c-0.4,0.1-0.7,0.3-1,0.6l-3.6-9.7h1.4l1.6,4.4    c0.1,0.3,0.3,0.5,0.6,0.6c0.3,0.1,0.6,0.1,0.9-0.1c0.1-0.1,0.2-0.1,0.3-0.1c0.4-0.2,0.9-0.1,1.3,0.1c0.4,0.2,0.7,0.5,0.9,1    c0,0.1,0.1,0.2,0.1,0.4c0,0.3,0.2,0.6,0.5,0.8c0.2,0.1,0.3,0.2,0.5,0.2c0.1,0,0.2,0,0.3-0.1l9.6-3.5c0.3-0.1,0.5-0.3,0.6-0.6    s0-0.6-0.1-0.9c-0.1-0.1-0.2-0.2-0.2-0.4c-0.2-0.6-0.1-1.2,0.3-1.7h3.9L48.7,47z M41.6,46.6l-7.5,2.8c-0.4-0.8-1-1.4-1.8-1.8    c-0.7-0.3-1.6-0.4-2.4-0.3l-1-2.8h12.7C41.5,45.2,41.4,45.9,41.6,46.6z M15.3,17C15.3,17,15.3,17,15.3,17c0.4,0,0.8-0.1,1.2-0.2    c0.6-0.2,1.2-0.6,1.6-1.2c0.6,0.2,1.3,0.1,2-0.1c0.6-0.2,1.2-0.7,1.6-1.2c0.6,0.2,1.3,0.1,1.9-0.1c0.6-0.2,1.2-0.6,1.6-1.2    c0.6,0.2,1.3,0.1,2-0.1c0.6-0.2,1.2-0.7,1.6-1.2c0.6,0.2,1.3,0.1,2-0.1c0.6-0.2,1.2-0.6,1.6-1.2c0.6,0.2,1.3,0.1,2-0.1    c0.4-0.1,0.7-0.3,1-0.6l3.5,9.7h-1.4L35.6,15c-0.1-0.3-0.3-0.5-0.6-0.6c-0.3-0.1-0.6-0.1-0.9,0.1c-0.1,0.1-0.2,0.1-0.3,0.1    c-0.9,0.3-1.9-0.1-2.2-1c0-0.1-0.1-0.2-0.1-0.4c0-0.3-0.2-0.6-0.5-0.8s-0.6-0.2-0.9-0.1l-9.6,3.5c-0.3,0.1-0.5,0.3-0.6,0.6    s0,0.6,0.1,0.9c0.1,0.1,0.2,0.2,0.2,0.4c0.2,0.6,0.1,1.2-0.3,1.7h-3.9L15.3,17z M22.4,17.4l7.5-2.8c0.4,0.8,1,1.4,1.8,1.8    c0.7,0.3,1.6,0.4,2.4,0.3l1,2.8H22.3C22.5,18.8,22.6,18.1,22.4,17.4z M11.8,35.8c0.4-0.5,0.6-1.2,0.6-1.9c0-0.7-0.2-1.3-0.6-1.9    c0.4-0.5,0.6-1.2,0.6-1.9c0-0.7-0.2-1.3-0.6-1.9c0.4-0.5,0.6-1.2,0.6-1.9c0-0.7-0.2-1.3-0.6-1.9c0.4-0.5,0.6-1.2,0.6-1.9    c0-0.4-0.1-0.8-0.2-1.2h3.3c0,0,0,0,0,0c0,0,0,0,0,0h21c0,0,0,0,0,0c0,0,0,0,0,0H40c0,0,0,0,0,0h11.8c-0.1,0.4-0.2,0.8-0.2,1.2    c0,0.7,0.2,1.3,0.6,1.9c-0.4,0.5-0.6,1.2-0.6,1.9c0,0.7,0.2,1.3,0.6,1.9c-0.4,0.5-0.6,1.2-0.6,1.9c0,0.7,0.2,1.3,0.6,1.9    c-0.4,0.5-0.6,1.2-0.6,1.9c0,0.7,0.2,1.3,0.6,1.9c-0.4,0.5-0.6,1.2-0.6,1.9c0,0.7,0.2,1.3,0.6,1.9c-0.4,0.5-0.6,1.2-0.6,1.9    c0,0.4,0.1,0.8,0.2,1.2H12.2c0.1-0.4,0.2-0.8,0.2-1.2c0-0.7-0.2-1.3-0.6-1.9c0.4-0.5,0.6-1.2,0.6-1.9    C12.4,36.9,12.2,36.3,11.8,35.8z"/></g></g></svg>